<svg id="HacksterLogo" xmlns="http://www.w3.org/2000/svg" viewBox="0 0 30 30"><defs><style>.cls-1{fill:#333;}</style></defs><title>hacksterLogo</title><path class="cls-1" d="M53.09,39.65a15,15,0,1,0,15,15A15,15,0,0,0,53.09,39.65Zm2.51,6.46a1.94,1.94,0,0,1,.84-1.27,9.67,9.67,0,0,1,2.06-.72c.61-.19.92.12.93.84,0,.91,0,1.82,0,2.74h0c0,.75,0,1.51,0,2.26a2,2,0,0,1-.07.82c-.67,1.41-1.83.58-2.77.74-.64.11-1-.34-1-1.12C55.55,49,55.49,47.53,55.6,46.11Zm-7.12,1.27a4.73,4.73,0,0,1,1-.3c.49-.13,1-.25,1.09.55s-.1,1.29-.89,1.31c-.34,0-.69,0-1,0l-.06.22c-.56-.23-1.6-.43-1.61-.69C46.91,47.43,47.91,47.67,48.48,47.38Zm2.12,14c0,3-.38,3.49-3,3.85-.65.09-.89-.24-.9-.92,0-.91,0-1.82,0-2.73h0c0-.76,0-1.51,0-2.26,0-1.14.42-1.53,1.36-1.54,2.55,0,2.55-.08,2.55,2.89Zm8.78.84a12.45,12.45,0,0,1-2.78,1c-.29.06-.65-.55-.93-.81A8,8,0,0,1,56,61.25c.32-.64,3.4-.81,3.69-.16A1.43,1.43,0,0,1,59.38,62.2Zm3.55-4.91q-3,1-6.06,1.91c-1,.32-1.24.16-1.32-1-.13-1.72-.16-1.76-1.67-1.77-1.92,0-3.84,0-5.76,0-1,0-1.43-.39-1.44-1.59C46.67,53,46.57,53,45,53c-.86,0-1.71-.06-2.57-.09l0-.52a8.48,8.48,0,0,1,.93-.41l6-1.88c1.13-.35,1.27-.23,1.32,1.09.07,1.49.17,1.61,1.47,1.62,2,0,3.91,0,5.86,0,1.33,0,1.48.21,1.52,1.71,0,1.74.12,1.82,1.6,1.83h2.67l.06.53A6.88,6.88,0,0,1,62.93,57.29Z" transform="translate(-38.09 -39.65)"/></svg>