<svg id="HacksterLogo" xmlns="http://www.w3.org/2000/svg" viewBox="0 0 28.15 28.08"><defs><style>.cls-1{fill:#282828;}.cls-2{fill:#fff;}</style></defs><title>hacksterLogo</title><path class="cls-1" d="M48.86,36h2.7c.38.09.76.19,1.15.27A14,14,0,1,1,36.43,53c-.18-.85-.27-1.72-.39-2.57v-.8c.05-.28.12-.56.15-.85A14,14,0,0,1,47.4,36.35C47.89,36.26,48.38,36.15,48.86,36ZM41.93,48.6l0,.34c.66,0,1.32.06,2,.07,1.2,0,1.28.05,1.29,1.23,0,.8.34,1.07,1.1,1.06,1.48,0,3,0,4.44,0,1.16,0,1.18,0,1.28,1.17.06.79.21.9,1,.69,1.55-.41,3.1-.84,4.66-1.27a4.63,4.63,0,0,0,.65-.29l0-.35H56.27c-1.14,0-1.19-.06-1.23-1.21s-.15-1.13-1.17-1.14c-1.5,0-3,0-4.51,0-1,0-1.08-.09-1.13-1.08s-.14-1-1-.72l-4.58,1.25A7.46,7.46,0,0,0,41.93,48.6ZM55,45.52h0V43.7c0-.47-.25-.68-.72-.55a8.34,8.34,0,0,0-1.59.47,1.3,1.3,0,0,0-.64.85,26.88,26.88,0,0,0,0,2.84c0,.52.31.82.8.74.73-.1,1.62.45,2.14-.48A1.25,1.25,0,0,0,55,47Zm-9.81,9.19h0c0,.61,0,1.21,0,1.82,0,.45.19.66.69.6,2-.23,2.3-.55,2.3-2.55v-.47c0-2,0-2-2-1.92-.72,0-1.08.27-1.05,1C45.25,53.71,45.23,54.21,45.23,54.71Zm1.45-8.22,0-.15h.79c.61,0,.75-.4.69-.91s-.46-.48-.84-.38a3.69,3.69,0,0,0-.76.2c-.44.21-1.21,0-1.16.76C45.45,46.19,46.24,46.33,46.68,46.49ZM52,54.81c.2.15.46.47.66.44a9.78,9.78,0,0,0,2-.55.64.64,0,0,0,.2-.59c-.21-.36-2.4-.26-2.62.08A3.8,3.8,0,0,0,52,54.81Z" transform="translate(-36.04 -36.04)"/><path class="cls-2" d="M41.93,48.6a7.46,7.46,0,0,1,.71-.27l4.58-1.25c.87-.24,1-.15,1,.72s.13,1.07,1.13,1.08c1.5,0,3,0,4.51,0,1,0,1.14.14,1.17,1.14s.09,1.2,1.23,1.21h2.06l0,.35a4.63,4.63,0,0,1-.65.29c-1.56.43-3.11.86-4.66,1.27-.81.21-1,.1-1-.69-.1-1.13-.12-1.16-1.28-1.17-1.48,0-3,0-4.44,0-.76,0-1.1-.26-1.1-1.06,0-1.18-.09-1.22-1.29-1.23-.66,0-1.32,0-2-.07Z" transform="translate(-36.04 -36.04)"/><path class="cls-2" d="M55,45.52V47a1.25,1.25,0,0,1,0,.55c-.52.93-1.41.38-2.14.48-.49.08-.8-.22-.8-.74a26.88,26.88,0,0,1,0-2.84,1.3,1.3,0,0,1,.64-.85,8.34,8.34,0,0,1,1.59-.47c.47-.13.71.08.72.55v1.82Z" transform="translate(-36.04 -36.04)"/><path class="cls-2" d="M45.23,54.71c0-.5,0-1,0-1.5,0-.75.33-1,1.05-1,2,0,2,0,2,1.92v.47c0,2-.29,2.32-2.3,2.55-.5.06-.68-.15-.69-.6,0-.61,0-1.21,0-1.82Z" transform="translate(-36.04 -36.04)"/><path class="cls-2" d="M46.68,46.49c-.44-.16-1.23-.3-1.24-.48,0-.72.72-.55,1.16-.76a3.69,3.69,0,0,1,.76-.2c.38-.1.76-.18.84.38s-.08.89-.69.91h-.79Z" transform="translate(-36.04 -36.04)"/><path class="cls-2" d="M52,54.81a3.8,3.8,0,0,1,.21-.62c.22-.34,2.41-.44,2.62-.08a.64.64,0,0,1-.2.59,9.78,9.78,0,0,1-2,.55C52.44,55.28,52.18,55,52,54.81Z" transform="translate(-36.04 -36.04)"/></svg>