<svg id="HacksterLogo" xmlns="http://www.w3.org/2000/svg" viewBox="0 0 31.31 30"><defs><style>.cls-1{fill:#282828;}.cls-2{fill:none;}</style></defs><title>hacksterLogo</title><path class="cls-1" d="M49.72,39.71h2.39c.34.08.68.17,1,.24A12.46,12.46,0,1,1,38.68,54.79c-.16-.75-.24-1.52-.35-2.28v-.7a6.35,6.35,0,0,0,.13-.76A12.44,12.44,0,0,1,48.42,40ZM43.56,50.86l0,.31c.59,0,1.18,0,1.76,0,1.07,0,1.14.05,1.14,1.1,0,.71.31,1,1,.94,1.31,0,2.62,0,3.93,0,1,0,1.06,0,1.14,1,.06.7.19.8.91.61l4.13-1.13a4.29,4.29,0,0,0,.58-.26l0-.31H56.3c-1,0-1.06-.06-1.09-1.08s-.13-1-1-1h-4c-.88,0-.95-.08-1-1s-.13-.85-.9-.65l-4.07,1.11C44,50.68,43.77,50.78,43.56,50.86Zm11.65-2.73h0c0-.54,0-1.08,0-1.62s-.21-.6-.63-.49a7.19,7.19,0,0,0-1.41.42,1.12,1.12,0,0,0-.57.76,23.51,23.51,0,0,0,0,2.52.59.59,0,0,0,.72.66c.64-.09,1.43.39,1.89-.43a1.3,1.3,0,0,0,.05-.49Zm-8.72,8.16h0V57.9c0,.4.18.59.62.54,1.78-.21,2-.49,2-2.26v-.42c0-1.75,0-1.74-1.74-1.71-.64,0-1,.24-.93.91C46.51,55.4,46.49,55.85,46.49,56.29ZM47.78,49l0-.14h.7c.54,0,.67-.35.61-.81s-.41-.42-.74-.33a3.1,3.1,0,0,0-.68.18c-.39.18-1.07,0-1,.67C46.69,48.73,47.39,48.85,47.78,49Zm4.71,7.39c.18.13.4.42.58.39a9,9,0,0,0,1.76-.48.59.59,0,0,0,.17-.54,3,3,0,0,0-2.33.08A2.87,2.87,0,0,0,52.49,56.38Z" transform="translate(-35.11 -37.39)"/><rect class="cls-2" width="31.31" height="30"/></svg>