<svg id="HacksterLogo" xmlns="http://www.w3.org/2000/svg" viewBox="0 0 28.15 28.08"><defs><style>.cls-1{fill:#282828;}</style></defs><title>hacksterLogo</title><path class="cls-1" d="M49.58,38.14h2.7c.38.09.76.19,1.15.26A14,14,0,1,1,37.15,55.12c-.18-.84-.27-1.71-.39-2.57v-.79c.05-.28.12-.56.15-.85A14,14,0,0,1,48.12,38.45C48.61,38.36,49.09,38.25,49.58,38.14ZM42.65,50.69l0,.35c.66,0,1.32.05,2,.06,1.2,0,1.28,0,1.28,1.24,0,.8.35,1.07,1.11,1,1.48,0,3,0,4.44,0,1.15,0,1.18,0,1.28,1.17.06.79.21.9,1,.69,1.56-.41,3.11-.84,4.66-1.27a4.27,4.27,0,0,0,.66-.29L59,53.34H57c-1.14,0-1.19-.07-1.23-1.22,0-1-.15-1.12-1.17-1.13-1.5,0-3,0-4.51,0-1,0-1.08-.09-1.13-1.08s-.15-1-1-.72c-1.53.41-3.06.82-4.59,1.25A5.89,5.89,0,0,0,42.65,50.69Zm13.11-3.07h0c0-.61,0-1.22,0-1.82s-.24-.68-.71-.55a7.5,7.5,0,0,0-1.59.47,1.27,1.27,0,0,0-.64.85,26.88,26.88,0,0,0,0,2.84.66.66,0,0,0,.8.74c.73-.1,1.62.45,2.14-.49a1.35,1.35,0,0,0,0-.54ZM46,56.81h0c0,.61,0,1.21,0,1.82,0,.44.19.66.69.6,2-.24,2.3-.55,2.3-2.55v-.47c0-2,0-2-2-1.92-.72,0-1.08.27-1.05,1C46,55.81,46,56.31,46,56.81Zm1.45-8.23,0-.14h.79c.61,0,.75-.4.69-.91s-.46-.47-.84-.38a4.46,4.46,0,0,0-.76.21c-.44.2-1.21,0-1.17.76C46.17,48.29,47,48.43,47.4,48.58Zm5.3,8.33c.2.14.45.47.65.44a10.38,10.38,0,0,0,2-.55.66.66,0,0,0,.2-.6c-.21-.35-2.4-.25-2.62.09A2.35,2.35,0,0,0,52.7,56.91Z" transform="translate(-36.76 -38.14)"/></svg>